<?xml version="1.0" encoding="utf-8"?>
<!-- Generator: Adobe Illustrator 19.0.0, SVG Export Plug-In . SVG Version: 6.00 Build 0)  -->
<svg version="1.1" id="Layer_1" xmlns="http://www.w3.org/2000/svg" xmlns:xlink="http://www.w3.org/1999/xlink" x="0px" y="0px"
	 viewBox="-340 378.9 85 85" style="enable-background:new -340 378.9 85 85;" xml:space="preserve">
<style type="text/css">
	.st0{fill:#72CECC;stroke:#369994;stroke-width:0.25;stroke-miterlimit:10;}
	.st1{fill:#FFFFFF;}
</style>
<g>
	<g>
		<g>
			<path class="st0" d="M-297.5,379.6c23.1,0,41.8,18.8,41.8,41.8s-18.7,41.8-41.8,41.8s-41.8-18.7-41.8-41.8
				S-320.6,379.6-297.5,379.6z"/>
		</g>
	</g>
	<g>
		<circle class="st1" cx="-297.6" cy="421.2" r="7"/>
		<path class="st1" d="M-300.6,389.1h-6.3c-0.4,0-0.7,0.3-0.7,0.7v11.6h-15h-7.6l-0.4,0.2c-0.3,0.2-0.5,0.6-0.3,1l3.8,6.5l7.6,13
			l-10.1,5.9c-0.3,0.2-0.5,0.6-0.3,1l3.1,5.4c0.2,0.3,0.6,0.5,1,0.3l16.2-9.4c0.3-0.2,0.5-0.6,0.3-1l-1.3-2.3l0,0l-7.6-12.9h11.3
			h5.4h0.9c0.4,0,0.7-0.3,0.7-0.7v-18.6C-299.9,389.5-300.2,389.1-300.6,389.1z"/>
		<path class="st1" d="M-323.7,439.7l3.1,5.5c0.2,0.3,0.6,0.5,1,0.3l10-5.7l7.5,13.1l3.7,6.6l0.4,0.2c0.3,0.2,0.8,0.1,1-0.3l3.7-6.5
			l7.6-13.1l10.1,5.9c0.3,0.2,0.8,0.1,1-0.3l3.1-5.4c0.2-0.3,0.1-0.8-0.3-1l-16.2-9.4c-0.3-0.2-0.8-0.1-1,0.3l-1.3,2.3l0,0l-7.5,13
			l-5.6-9.7l-2.7-4.7l-0.5-0.8c-0.2-0.3-0.6-0.5-1-0.3l-16.1,9.2C-323.8,438.9-323.9,439.4-323.7,439.7z"/>
		<path class="st1" d="M-268.6,434.5l3.2-5.4c0.2-0.3,0.1-0.8-0.3-1l-9.9-5.9l7.7-13l3.8-6.6v-0.5c0-0.4-0.3-0.7-0.7-0.7h-7.6
			l-15-0.1l0.1-11.8c0-0.4-0.3-0.7-0.7-0.7h-6.3c-0.4,0-0.7,0.3-0.7,0.7l-0.1,18.8c0,0.4,0.3,0.7,0.7,0.7h2.7l0,0l14.9,0.1l-5.7,9.7
			l-2.8,4.6l-0.5,0.8c-0.2,0.3-0.1,0.8,0.3,1l16,9.4C-269.3,435-268.8,434.9-268.6,434.5z"/>
	</g>
</g>
</svg>
